0
SECTION
2
HEADER
9
$INSUNITS
70
4
9
$ACADVER
1
AC1014
9
$HANDSEED
5
FFFF
0
ENDSEC
0
SECTION
2
TABLES
0
TABLE
2
VPORT
5
8
100
AcDbSymbolTable
0
ENDTAB
0
TABLE
2
LTYPE
5
5
100
AcDbSymbolTable
0
LTYPE
5
14
100
AcDbSymbolTableRecord
100
AcDbLinetypeTableRecord
2
BYBLOCK
70
0
0
LTYPE
5
15
100
AcDbSymbolTableRecord
100
AcDbLinetypeTableRecord
2
BYLAYER
70
0
0
ENDTAB
0
TABLE
2
LAYER
5
2
100
AcDbSymbolTable
70
2
0
LAYER
5
50
100
AcDbSymbolTableRecord
100
AcDbLayerTableRecord
2
0
70
0
6
CONTINUOUS
0
ENDTAB
0
TABLE
2
STYLE
5
3
100
AcDbSymbolTable
70
1
0
STYLE
5
11
100
AcDbSymbolTableRecord
100
AcDbTextStyleTableRecord
2
STANDARD
70
0
0
ENDTAB
0
TABLE
2
VIEW
5
6
100
AcDbSymbolTable
70
0
0
ENDTAB
0
TABLE
2
UCS
5
7
100
AcDbSymbolTable
70
0
0
ENDTAB
0
TABLE
2
APPID
5
9
100
AcDbSymbolTable
70
2
0
APPID
5
12
100
AcDbSymbolTableRecord
100
AcDbRegAppTableRecord
2
ACAD
70
0
0
ENDTAB
0
TABLE
2
DIMSTYLE
5
A
100
AcDbSymbolTable
70
1
0
ENDTAB
0
TABLE
2
BLOCK_RECORD
5
1
100
AcDbSymbolTable
70
1
0
BLOCK_RECORD
5
1F
100
AcDbSymbolTableRecord
100
AcDbBlockTableRecord
2
*MODEL_SPACE
0
BLOCK_RECORD
5
1B
100
AcDbSymbolTableRecord
100
AcDbBlockTableRecord
2
*PAPER_SPACE
0
ENDTAB
0
ENDSEC
0
SECTION
2
BLOCKS
0
BLOCK
5
20
100
AcDbEntity
100
AcDbBlockBegin
2
*MODEL_SPACE
0
ENDBLK
5
21
100
AcDbEntity
100
AcDbBlockEnd
0
BLOCK
5
1C
100
AcDbEntity
100
AcDbBlockBegin
2
*PAPER_SPACE
0
ENDBLK
5
1D
100
AcDbEntity
100
AcDbBlockEnd
0
ENDSEC
0
SECTION
2
ENTITIES
0
LWPOLYLINE
5
100
100
AcDbEntity
8
0
100
AcDbPolyline
90
12
70
1
43
0.0
10
34.17363020029152
20
-39.211469534050202
42
0.50205539344594807
10
44.553471148978204
20
-40.186915887850489
42
0.10554749392216121
10
57.079625633116095
20
-18.490979897866929
42
0.50205539344594785
10
51.044943836352779
20
-9.9894971259624565
42
-0.56217233643168196
10
16.871313636061259
20
49.200966660012604
42
0.50205539344594785
10
12.526154484137885
20
58.677895785717375
42
0.10554749392216142
10
-12.526154484137887
20
58.677895785717396
42
0.50205539344594685
10
-16.871313636061281
20
49.200966660012625
42
-0.5621723364316823
10
-51.0449438363528
20
-9.9894971259624388
42
0.50205539344594785
10
-57.079625633116102
20
-18.490979897866932
42
0.10554749392216149
10
-44.553471148978176
20
-40.186915887850546
42
0.50205539344594652
10
-34.173630200291512
20
-39.211469534050252
42
-0.56217233643168241
0
CIRCLE
5
101
100
AcDbEntity
8
0
100
AcDbCircle
10
10.094999999999963
20
-6.1000000000000334
30
4.9772192738788033e-31
40
1.25
210
-4.9303806576313238e-32
220
0
230
-1
0
CIRCLE
5
102
100
AcDbEntity
8
0
100
AcDbCircle
10
10.094999999999963
20
6.0999999999999535
30
4.9772192738788033e-31
40
1.25
210
-4.9303806576313238e-32
220
0
230
-1
0
CIRCLE
5
103
100
AcDbEntity
8
0
100
AcDbCircle
10
1.9360678570397651e-14
20
49.999999999999964
30
0
40
1.7500000000000002
210
0
220
0
230
-1
0
CIRCLE
5
104
100
AcDbEntity
8
0
100
AcDbCircle
10
43.301270189221938
20
-25.000000000000036
30
0
40
1.7500000000000002
210
0
220
0
230
-1
0
CIRCLE
5
105
100
AcDbEntity
8
0
100
AcDbCircle
10
0
20
0
30
0
40
5
210
0
220
0
230
-1
0
CIRCLE
5
106
100
AcDbEntity
8
0
100
AcDbCircle
10
-43.301270189221945
20
-24.999999999999996
30
0
40
1.7500000000000002
210
0
220
0
230
-1
0
CIRCLE
5
107
100
AcDbEntity
8
0
100
AcDbCircle
10
-10.094999999999963
20
-6.1000000000000334
30
0
40
1.25
210
0
220
0
230
1
0
CIRCLE
5
108
100
AcDbEntity
8
0
100
AcDbCircle
10
-10.094999999999963
20
6.0999999999999535
30
0
40
1.25
210
0
220
0
230
1
0
LWPOLYLINE
5
109
100
AcDbEntity
8
0
100
AcDbPolyline
90
12
70
1
43
0.0
10
34.173630200291512
20
-39.211469534050195
42
0.50205539344594841
10
44.553471148978204
20
-40.186915887850475
42
0.10554749392216066
10
57.079625633116095
20
-18.490979897866925
42
0.50205539344594707
10
51.044943836352807
20
-9.9894971259624334
42
-0.56217233643168185
10
16.871313636061274
20
49.200966660012604
42
0.50205539344594907
10
12.526154484137852
20
58.677895785717382
42
0.10554749392216121
10
-12.526154484137882
20
58.677895785717382
42
0.50205539344594741
10
-16.871313636061274
20
49.200966660012604
42
-0.56217233643168218
10
-51.0449438363528
20
-9.9894971259624441
42
0.50205539344594741
10
-57.079625633116109
20
-18.490979897866929
42
0.1055474939221608
10
-44.553471148978176
20
-40.186915887850546
42
0.50205539344594674
10
-34.173630200291498
20
-39.211469534050238
42
-0.5621723364316823
0
CIRCLE
5
110
100
AcDbEntity
8
0
100
AcDbCircle
10
43.301270189221945
20
-24.999999999999996
30
0
40
1.7500000000000002
210
0
220
-0
230
1
0
CIRCLE
5
111
100
AcDbEntity
8
0
100
AcDbCircle
10
-1.3237444574660885e-14
20
-3.1086244689504402e-14
30
0
40
5
210
0
220
0
230
1
0
CIRCLE
5
112
100
AcDbEntity
8
0
100
AcDbCircle
10
-43.301270189221938
20
-25.000000000000036
30
0
40
1.7500000000000002
210
0
220
-0
230
1
0
CIRCLE
5
113
100
AcDbEntity
8
0
100
AcDbCircle
10
-1.9360678570397651e-14
20
49.999999999999964
30
0
40
1.7500000000000002
210
0
220
-0
230
1
0
ENDSEC
0
SECTION
2
OBJECTS
0
DICTIONARY
5
C
100
AcDbDictionary
3
ACAD_GROUP
350
D
3
ACAD_MLINESTYLE
350
17
0
DICTIONARY
5
D
100
AcDbDictionary
0
DICTIONARY
5
1A
330
C
100
AcDbDictionary
0
DICTIONARY
5
17
100
AcDbDictionary
0
ENDSEC
0
EOF
