0
SECTION
2
HEADER
9
$INSUNITS
70
4
9
$ACADVER
1
AC1014
9
$HANDSEED
5
FFFF
0
ENDSEC
0
SECTION
2
TABLES
0
TABLE
2
VPORT
5
8
100
AcDbSymbolTable
0
ENDTAB
0
TABLE
2
LTYPE
5
5
100
AcDbSymbolTable
0
LTYPE
5
14
100
AcDbSymbolTableRecord
100
AcDbLinetypeTableRecord
2
BYBLOCK
70
0
0
LTYPE
5
15
100
AcDbSymbolTableRecord
100
AcDbLinetypeTableRecord
2
BYLAYER
70
0
0
ENDTAB
0
TABLE
2
LAYER
5
2
100
AcDbSymbolTable
70
2
0
LAYER
5
50
100
AcDbSymbolTableRecord
100
AcDbLayerTableRecord
2
0
70
0
6
CONTINUOUS
0
ENDTAB
0
TABLE
2
STYLE
5
3
100
AcDbSymbolTable
70
1
0
STYLE
5
11
100
AcDbSymbolTableRecord
100
AcDbTextStyleTableRecord
2
STANDARD
70
0
0
ENDTAB
0
TABLE
2
VIEW
5
6
100
AcDbSymbolTable
70
0
0
ENDTAB
0
TABLE
2
UCS
5
7
100
AcDbSymbolTable
70
0
0
ENDTAB
0
TABLE
2
APPID
5
9
100
AcDbSymbolTable
70
2
0
APPID
5
12
100
AcDbSymbolTableRecord
100
AcDbRegAppTableRecord
2
ACAD
70
0
0
ENDTAB
0
TABLE
2
DIMSTYLE
5
A
100
AcDbSymbolTable
70
1
0
ENDTAB
0
TABLE
2
BLOCK_RECORD
5
1
100
AcDbSymbolTable
70
1
0
BLOCK_RECORD
5
1F
100
AcDbSymbolTableRecord
100
AcDbBlockTableRecord
2
*MODEL_SPACE
0
BLOCK_RECORD
5
1B
100
AcDbSymbolTableRecord
100
AcDbBlockTableRecord
2
*PAPER_SPACE
0
ENDTAB
0
ENDSEC
0
SECTION
2
BLOCKS
0
BLOCK
5
20
100
AcDbEntity
100
AcDbBlockBegin
2
*MODEL_SPACE
0
ENDBLK
5
21
100
AcDbEntity
100
AcDbBlockEnd
0
BLOCK
5
1C
100
AcDbEntity
100
AcDbBlockBegin
2
*PAPER_SPACE
0
ENDBLK
5
1D
100
AcDbEntity
100
AcDbBlockEnd
0
ENDSEC
0
SECTION
2
ENTITIES
0
CIRCLE
5
100
100
AcDbEntity
8
0
100
AcDbCircle
10
-27.730762500676605
20
11.968911310271785
30
1.85962356624714e-14
40
1.7000000000000006
210
2.7755575615628923e-16
220
-4.8074067159589063e-16
230
-1
0
CIRCLE
5
101
100
AcDbEntity
8
0
100
AcDbCircle
10
24.230762500676562
20
18.031089136762951
30
1.8596235662471407e-14
40
1.7000000000000004
210
2.7755575615628904e-16
220
4.8074067159589103e-16
230
-1
0
CIRCLE
5
102
100
AcDbEntity
8
0
100
AcDbCircle
10
-24.230762500676597
20
18.031089136762855
30
1.9428902930940265e-14
40
1.7000000000000004
210
2.3790493384824797e-16
220
-4.1206343279647775e-16
230
-1
0
CIRCLE
5
103
100
AcDbEntity
8
0
100
AcDbCircle
10
27.730762500676562
20
11.96891131027188
30
1.9428902930940271e-14
40
1.7000000000000004
210
2.3790493384824768e-16
220
4.12063432796478e-16
230
-1
0
CIRCLE
5
104
100
AcDbEntity
8
0
100
AcDbCircle
10
-15.588457655263344
20
9.0000002235173113
30
1.6653345369377383e-14
40
1.7000000000000002
210
2.7755575615628918e-16
220
-4.8074067159589054e-16
230
-1
0
CIRCLE
5
105
100
AcDbEntity
8
0
100
AcDbCircle
10
15.588457655263298
20
9.0000002235174232
30
1.6653345369377386e-14
40
1.6999999999999997
210
2.7755575615628894e-16
220
4.8074067159589093e-16
230
-1
0
CIRCLE
5
106
100
AcDbEntity
8
0
100
AcDbCircle
10
-3.4999999999999245
20
-30.000000447034711
30
1.9428902930940277e-14
40
1.7000000000000002
210
-4.7580986769649565e-16
220
-4.5784136020104199e-32
230
-1
0
CIRCLE
5
107
100
AcDbEntity
8
0
100
AcDbCircle
10
3.5000000000000759
20
-30.000000447034715
30
1.8596235662471419e-14
40
1.7000000000000004
210
-5.5511151231257817e-16
220
-5.341482535678826e-32
230
-1
0
CIRCLE
5
108
100
AcDbEntity
8
0
100
AcDbCircle
10
8.1465313179122755e-14
20
-18.000000447034715
30
1.6653345369377395e-14
40
1.6999999999999997
210
-5.5511151231257807e-16
220
-5.3414825356788238e-32
230
-1
0
CIRCLE
5
109
100
AcDbEntity
8
0
100
AcDbCircle
10
1.2229460631175125e-14
20
50
30
-6.162975822039154e-30
40
1.7500000000000002
210
0
220
0
230
-1
0
CIRCLE
5
110
100
AcDbEntity
8
0
100
AcDbCircle
10
43.301270189221938
20
-25
30
6.2838640858966925e-30
40
1.7500000000000002
210
0
220
0
230
-1
0
CIRCLE
5
111
100
AcDbEntity
8
0
100
AcDbCircle
10
1.1657341758564141e-14
20
-50
30
6.1629758220391547e-30
40
1.7500000000000002
210
0
220
0
230
-1
0
CIRCLE
5
112
100
AcDbEntity
8
0
100
AcDbCircle
10
0
20
0
30
0
40
5
210
0
220
0
230
-1
0
CIRCLE
5
113
100
AcDbEntity
8
0
100
AcDbCircle
10
43.301270189221952
20
24.999999999999996
30
1.2088826385753959e-31
40
1.7500000000000002
210
0
220
0
230
-1
0
CIRCLE
5
114
100
AcDbEntity
8
0
100
AcDbCircle
10
-43.301270189221945
20
-24.999999999999961
30
-1.2088826385754375e-31
40
1.7500000000000002
210
0
220
0
230
-1
0
CIRCLE
5
115
100
AcDbEntity
8
0
100
AcDbCircle
10
-43.30127018922191
20
25.000000000000014
30
-6.2838640858966925e-30
40
1.7500000000000002
210
0
220
0
230
-1
0
CIRCLE
5
116
100
AcDbEntity
8
0
100
AcDbCircle
10
0
20
0
30
0
40
60.000000000000007
210
0
220
0
230
-1
0
CIRCLE
5
117
100
AcDbEntity
8
0
100
AcDbCircle
10
27.730762500676605
20
11.968911310271785
30
-4.1817407985777925e-31
40
1.7000000000000006
210
-1.3687901713370854e-33
220
2.3708141216566942e-33
230
1
0
CIRCLE
5
118
100
AcDbEntity
8
0
100
AcDbCircle
10
-24.230762500676562
20
18.031089136762951
30
4.305000866031465e-31
40
1.7000000000000004
210
6.4373419227360843e-34
220
1.114980327587169e-33
230
1
0
CIRCLE
5
119
100
AcDbEntity
8
0
100
AcDbCircle
10
24.230762500676597
20
18.031089136762855
30
7.0202043087901884e-32
40
1.7000000000000004
210
-1.3687901713370909e-33
220
2.3708141216567034e-33
230
1
0
CIRCLE
5
120
100
AcDbEntity
8
0
100
AcDbCircle
10
-27.730762500676562
20
11.96891131027188
30
-5.7556600539382488e-31
40
1.7000000000000004
210
6.4373419227360843e-34
220
1.114980327587169e-33
230
1
0
CIRCLE
5
121
100
AcDbEntity
8
0
100
AcDbCircle
10
15.588457655263344
20
9.0000002235173113
30
2.9003886405238382e-31
40
1.7000000000000002
210
-1.3687901713370964e-33
220
2.370814121656713e-33
230
1
0
CIRCLE
5
122
100
AcDbEntity
8
0
100
AcDbCircle
10
-15.588457655263298
20
9.0000002235174232
30
-4.3519776069529109e-32
40
1.6999999999999997
210
6.4373419227360758e-34
220
1.1149803275872203e-33
230
1
0
CIRCLE
5
123
100
AcDbEntity
8
0
100
AcDbCircle
10
3.4999999999999245
20
-30.000000447034711
30
5.0536396230592315e-31
40
1.7000000000000002
210
-1.4501119581268767e-33
220
-5.9037601595901462e-50
230
1
0
CIRCLE
5
124
100
AcDbEntity
8
0
100
AcDbCircle
10
-3.5000000000000759
20
-30.000000447034715
30
-1.2326006745366655e-32
40
1.7000000000000004
210
-1.4501119581268876e-33
220
-5.9037601595901994e-50
230
1
0
CIRCLE
5
125
100
AcDbEntity
8
0
100
AcDbCircle
10
-8.1465313179122768e-14
20
-18.000000447034715
30
-2.4651908798285521e-31
40
1.6999999999999997
210
-1.4501119581268657e-33
220
-5.9037601595901092e-50
230
1
0
CIRCLE
5
126
100
AcDbEntity
8
0
100
AcDbCircle
10
-1.2229460631175125e-14
20
50
30
-1.0947644252537614e-46
40
1.7500000000000002
210
-1.0947644252537633e-47
220
6.0771633572862712e-64
230
1
0
CIRCLE
5
127
100
AcDbEntity
8
0
100
AcDbCircle
10
-43.301270189221938
20
-25
30
-1.0947644252537614e-46
40
1.7500000000000002
210
-1.0947644252537633e-47
220
6.0771633572862712e-64
230
1
0
CIRCLE
5
128
100
AcDbEntity
8
0
100
AcDbCircle
10
-1.1657341758564141e-14
20
-50
30
7.6633509767763449e-46
40
1.7500000000000002
210
-1.0947644252537633e-47
220
6.0771633572862712e-64
230
1
0
CIRCLE
5
129
100
AcDbEntity
8
0
100
AcDbCircle
10
-8.8817841970012492e-15
20
4.4408920985006262e-15
30
0
40
5
210
0
220
-0
230
1
0
CIRCLE
5
130
100
AcDbEntity
8
0
100
AcDbCircle
10
-43.301270189221952
20
24.999999999999996
30
3.284293275761292e-46
40
1.7500000000000002
210
-1.0947644252537633e-47
220
6.0771633572862712e-64
230
1
0
CIRCLE
5
131
100
AcDbEntity
8
0
100
AcDbCircle
10
43.301270189221945
20
-24.999999999999961
30
3.284293275761292e-46
40
1.7500000000000002
210
-1.0947644252537633e-47
220
6.0771633572862712e-64
230
1
0
CIRCLE
5
132
100
AcDbEntity
8
0
100
AcDbCircle
10
43.30127018922191
20
25.000000000000014
30
-1.0947644252537614e-46
40
1.7500000000000002
210
-1.0947644252537633e-47
220
6.0771633572862712e-64
230
1
0
CIRCLE
5
133
100
AcDbEntity
8
0
100
AcDbCircle
10
-8.8817841970012492e-15
20
4.4408920985006262e-15
30
0
40
60
210
1.0947644252537636e-47
220
-6.0771633572862725e-64
230
1
0
ENDSEC
0
SECTION
2
OBJECTS
0
DICTIONARY
5
C
100
AcDbDictionary
3
ACAD_GROUP
350
D
3
ACAD_MLINESTYLE
350
17
0
DICTIONARY
5
D
100
AcDbDictionary
0
DICTIONARY
5
1A
330
C
100
AcDbDictionary
0
DICTIONARY
5
17
100
AcDbDictionary
0
ENDSEC
0
EOF
